<?xml version="1.0" encoding="UTF-8" standalone="no"?>
<svg
   xmlns:dc="http://purl.org/dc/elements/1.1/"
   xmlns:cc="http://creativecommons.org/ns#"
   xmlns:rdf="http://www.w3.org/1999/02/22-rdf-syntax-ns#"
   xmlns:svg="http://www.w3.org/2000/svg"
   xmlns="http://www.w3.org/2000/svg"
   xmlns:sodipodi="http://sodipodi.sourceforge.net/DTD/sodipodi-0.dtd"
   xmlns:inkscape="http://www.inkscape.org/namespaces/inkscape"
   width="34pt"
   height="21pt"
   viewBox="0 0 34 21"
   version="1.1"
   id="svg2"
   inkscape:version="0.91 r13725"
   sodipodi:docname="avia-down.svg">
  <metadata
     id="metadata16">
    <rdf:RDF>
      <cc:Work
         rdf:about="">
        <dc:format>image/svg+xml</dc:format>
        <dc:type
           rdf:resource="http://purl.org/dc/dcmitype/StillImage" />
        <dc:title></dc:title>
      </cc:Work>
    </rdf:RDF>
  </metadata>
  <defs
     id="defs14" />
  <sodipodi:namedview
     pagecolor="#ffffff"
     bordercolor="#666666"
     borderopacity="1"
     objecttolerance="10"
     gridtolerance="10"
     guidetolerance="10"
     inkscape:pageopacity="0"
     inkscape:pageshadow="2"
     inkscape:window-width="1366"
     inkscape:window-height="706"
     id="namedview12"
     showgrid="false"
     inkscape:zoom="17.863813"
     inkscape:cx="17.550681"
     inkscape:cy="16.158203"
     inkscape:window-x="-8"
     inkscape:window-y="-8"
     inkscape:window-maximized="1"
     inkscape:current-layer="svg2" />
  <g
     id="g3344"
     transform="matrix(-0.8508111,-0.52547165,-0.52547165,0.8508111,34.6077,9.7964816)" />
  <g
     id="g3348"
     transform="matrix(0.8508111,0.52547165,-0.52547165,0.8508111,5.4596584,-8.2057157)">
    <g
       id="g3356">
      <path
         sodipodi:nodetypes="cccccccccccc"
         style="fill:#5fbdff"
         inkscape:connector-curvature="0"
         id="path6"
         d="m 9.33,0 0.35,0 c 2.66,1.95 5.068251,2.8117338 7.978251,4.3117338 5.44,2.12 10.497517,-3.2679067 15.927517,-2.2179067 0.546469,0.1647655 0.988902,0.3862623 1.165969,0.7785153 L 34,3.81 c -1.07,1.06 -2.3,1.97 -3.73,2.48 -6.05,2.33 -12.12,4.59 -18.16,6.94 -2.89,1.21 -6.06,0.31 -9.04,0.03 3.042616,-2.450433 6.7,-2.82 9.81,-4.71 L 7.7456502,1.4317338 Z" />
      <path
         d="m 0,7.91 c 2.09,0.48 4.36,1.2 5.66,3.04 -1.1,0.32 -2.2,0.81435 -2.9765171,1.552616 -0.78,-1.06 -2.37609891,-3.1847986 -3.17609891,-4.2247986 z"
         id="path10"
         inkscape:connector-curvature="0"
         style="fill:#5fbdff"
         sodipodi:nodetypes="ccccc" />
    </g>
  </g>
</svg>
