<?xml version="1.0" encoding="UTF-8" ?>
<!DOCTYPE svg PUBLIC "-//W3C//DTD SVG 1.1//EN" "http://www.w3.org/Graphics/SVG/1.1/DTD/svg11.dtd">
<svg width="34pt" height="21pt" viewBox="0 0 34 21" version="1.1" xmlns="http://www.w3.org/2000/svg">
<path fill="#ffffff" d=" M 0.00 0.00 L 9.33 0.00 C 8.97 0.45 8.24 1.34 7.88 1.79 C 9.55 4.04 11.22 6.29 12.88 8.55 C 9.77 10.44 5.62 10.72 3.07 13.26 C 6.05 13.54 9.22 14.44 12.11 13.23 C 18.15 10.88 24.22 8.62 30.27 6.29 C 31.70 5.78 32.93 4.87 34.00 3.81 L 34.00 21.00 L 0.00 21.00 L 0.00 8.86 C 0.80 9.90 1.59 10.95 2.37 12.01 C 3.46 11.63 4.56 11.27 5.66 10.95 C 4.36 9.11 2.09 8.39 0.00 7.91 L 0.00 0.00 Z" />
<path fill="#5fbdff" d=" M 9.33 0.00 L 9.68 0.00 C 12.34 1.95 15.42 3.17 18.33 4.67 C 23.77 6.79 28.14 0.76 33.57 1.81 L 34.00 0.00 L 34.00 3.81 C 32.93 4.87 31.70 5.78 30.27 6.29 C 24.22 8.62 18.15 10.88 12.11 13.23 C 9.22 14.44 6.05 13.54 3.07 13.26 C 5.62 10.72 9.77 10.44 12.88 8.55 C 11.22 6.29 9.55 4.04 7.88 1.79 C 8.24 1.34 8.97 0.45 9.33 0.00 Z" />
<path fill="#ffffff" d=" M 9.68 0.00 L 34.00 0.00 L 34.00 0.00 L 33.57 1.81 C 28.14 0.76 23.77 6.79 18.33 4.67 C 15.42 3.17 12.34 1.95 9.68 0.00 Z" />
<path fill="#5fbdff" d=" M 0.00 7.91 C 2.09 8.39 4.36 9.11 5.66 10.95 C 4.56 11.27 3.46 11.63 2.37 12.01 C 1.59 10.95 0.80 9.90 0.00 8.86 L 0.00 7.91 Z" />
</svg>
