<svg xmlns="http://www.w3.org/2000/svg" width="177" height="112" shape-rendering="geometricPrecision" fill-rule="evenodd" clip-rule="evenodd" viewBox="0 0 28.4205 18.0076"><defs><linearGradient id="a" gradientUnits="userSpaceOnUse" x1=".284" y1="8.991" x2="28.136" y2="8.991"><stop offset="0" stop-color="#6CF"/><stop offset="1" stop-color="#06C"/></linearGradient><radialGradient id="b" gradientUnits="userSpaceOnUse" cx="21.968" cy="8.437" r="5.751" fx="21.968" fy="8.437"><stop offset="0" stop-color="#9CF"/><stop offset=".4" stop-color="#369"/><stop offset="1" stop-color="#9CF"/></radialGradient></defs><path fill="url(#a)" d="M0 18.008h23.837L28.42.024c-2.29-.05-5.2-.042-7.38.222L9.84 13.7C7.606 16.38 5.392 16.2 0 18.007z"/><path fill="url(#b)" stroke="#FFF" stroke-width=".321" d="M20.12 5.39c2.55 0 4.618 2.067 4.618 4.617s-2.067 4.617-4.617 4.617-4.616-2.067-4.616-4.617S17.57 5.39 20.12 5.39z"/><path fill="#FFF" d="M17.99 14.132c-.29-.14-.552-.317-.802-.506.49-.373 1.022-.88 1.01-1.79-.01-.72-.526-1.34-1.083-1.722-.223-.154-.264-.494.003-.727 1.846-1.662 5.214-3.336 9.092-3.2-.017.316-.752 1.01-1.128 1.062-2.478.083-4.66.924-6.982 2.636.61.373.926 1.18.942 1.96.02 1.045-.45 1.815-1.053 2.286zm.605-4.167c1.404-1.004 3.393-1.99 5.487-2.27-.477.4-1.027 1.143-1.618 1.344-1.228.417-2.32 1.02-3.38 1.707-.13-.38-.265-.557-.49-.782zm.58 1.09c.908-.607 2.216-1.312 3.32-1.684-.343.552-.678 1.274-1.058 1.442-.728.323-1.1.52-2.16 1.207.018-.403-.006-.66-.103-.965zm.092 1.328c.758-.497 1.272-.817 2.15-1.24-.21.523-.453 1.035-.786 1.28-.444.33-.87.53-1.71.98.22-.32.31-.7.347-1.02z"/></svg>