<svg xmlns="http://www.w3.org/2000/svg" width="285" height="55" viewBox="0 0 285 55"><path fill="#06C" fill-rule="nonzero" d="M45.146 48.73c.28 1.83.666 3.75-1.85 3.763l-5.375.035c-1.13.01-2.003-.21-2.178-1.47l-1.367-9.644h-16.84l-4.607 9.432c-.68 1.388-1.577 1.637-3.024 1.637H4.63c-2.326 0-1.093-2.495-.427-3.826l21.62-43.172c.826-1.665 1.61-1.787 3.454-1.878 2.043-.106 4.184-.095 6.22 0 1.7.08 2.803.084 3.094 1.99l6.563 43.133zM30.738 13.488l-9.77 20.42h12.52l-2.753-20.42zm49.546 6.49c-3.434 10.875-8.213 21.776-14.88 31.058-.807 1.226-2.328 1.47-3.68 1.52-1.735.07-3.592.08-5.316-.063-1.454-.122-2.69-.217-2.814-1.913L49.46 20.797c-.168-2.292-.806-3.83 2.008-4.19 1.394-.176 3.258-.176 4.66-.036 1.15.106 1.916.236 2.032 1.518l3.034 25.253c4.97-9.305 7.5-14.975 10.326-25.252.274-1.286 1.605-1.43 2.716-1.52 1.374-.112 3.013-.126 4.38 0 2.593.238 2.302 1.19 1.668 3.412zM97.796 8.08c-.637 3.838-2.042 4.546-5.823 4.546-3.75 0-4.758-.694-4.065-4.548.677-3.75 2.113-4.555 5.838-4.555 3.784 0 4.674.784 4.047 4.555zM89.47 51.096c-.188 1.115-1.653 1.297-2.557 1.395-1.352.14-2.95.154-4.3 0-.82-.09-2.224-.245-2.02-1.395l5.805-33.05c.19-1.085 1.647-1.33 2.537-1.442 1.286-.168 3.038-.176 4.32 0 .813.112 2.208.315 2.012 1.443L89.47 51.1zm37.335.035c-.326 1.836-4.716 1.528-6.016 1.384-.877-.09-1.928-.26-1.735-1.377l.918-5.312c-1.777 4.19-7.443 6.868-11.844 6.868-11.88 0-10.884-14.632-8.39-22.723 2.265-7.316 7.08-13.935 15.44-13.935 3.98 0 6.95 1.63 9.23 4.846l.524-2.935c.326-1.815 4.713-1.528 5.992-1.356.792.104 1.934.286 1.745 1.355l-5.86 33.2zM122.1 27.885c-6.343-8.637-12.008-2.768-13.953 4.93-.764 3.014-2.467 12.485 2.908 12.485 7.66 0 10.575-13.294 11.045-17.415zm54.366-18.458c.02 1.436-.29 3.546-.813 4.87-.595 1.507-1.08 1.587-2.438.63-3.238-2.277-6.553-3.46-10.54-3.46-9.34 0-14.67 8.21-16.13 16.622-1.393 7.998.058 16.922 9.854 16.922 2.067 0 4.225-.47 6.044-1.485l1.808-11.108h-7.954c-1.847 0-.386-7.387 1.17-7.387h14.24c1.815 0 2.015 1.69 1.787 3.12l-3.143 19.228c-.294 1.823-.77 2.384-2.47 3.183-3.58 1.682-8.13 2.26-12.054 2.26-16.21 0-20.778-11.514-18.104-25.905 2.442-13.132 11.42-23.424 25.392-23.424 3.518 0 8.112.912 11.153 2.78 1.492.91 2.172 1.33 2.2 3.153zm42.118 17.94c-1.675 13.234-8.816 25.498-23.428 25.498-15.137 0-17.344-10.968-15.732-23.697 1.65-13.007 8.633-25.71 23.252-25.71 14.996 0 17.495 11.284 15.908 23.91zm-16.924-15.9c-7.7 0-10.957 8.163-12.43 14.617-1.618 7.12-3.377 19.08 6.984 19.08 9.356 0 12.464-11.57 13.21-19.286.648-6.682.7-14.416-7.757-14.416zm24.79 36.555c-.35 3.05-1.114 4.703-4.478 4.703-3.61 0-3.515-2.243-2.83-5.127.6-2.53 1.582-3.328 4.23-3.328 2.854 0 3.383 1.142 3.078 3.75zm25.936 3.445c-.203 1.114-2.015 1.072-2.873 1.072-.652 0-2.593.083-2.397-1.077l.676-3.96c-1.542 2.955-5.203 5.49-8.57 5.49-6.64 0-6.833-5.85-5.922-10.86l2.75-15.127c.197-1.097 2.327-1.072 3.23-1.076.744-.007 3.25-.105 3.036 1.076l-2.642 14.66c-.305 1.7-.8 5.396 1.797 5.396 3.796 0 6.613-6.16 7.22-9.495l1.89-10.56c.205-1.098 2.503-1.066 3.358-1.066.666 0 3.1.05 2.915 1.062l-4.467 24.458zm26.405 0c-.198 1.114-2.16 1.072-2.998 1.072-.76 0-2.638-.16-2.474-1.077l.7-3.914c-1.253 2.978-5.195 5.444-8.443 5.444-7.043 0-7.394-7.813-6.616-13.07.938-6.39 4.498-14.45 11.962-14.45 1.384 0 2.613.316 3.68.947 1.064.63 1.996 1.55 2.795 2.75l.4-2.16c.21-1.11 2.158-1.066 2.992-1.066.664 0 2.683-.084 2.472 1.062l-4.467 24.457zm-3.093-17.128c-1.01-1.717-2.298-3.007-4.4-3.007-3.918 0-5.614 6.01-6.01 9.264-.245 2.022-.68 6.577 2.442 6.577 5.48 0 7.218-8.84 7.97-12.83z"/></svg>